[   0s] CDP targets: 1
[   0s]   page: file:///Users/runner/.comfy-test-cache/desktop/ComfyUI.app/Contents/Resources/desktop-ui/index.html#/welcome | ComfyUI
[   2s] Main page: file:///Users/runner/.comfy-test-cache/desktop/ComfyUI.app/Contents/Resources/desktop-ui/index.html#/welcome | ComfyUI
[   2s] Buttons: ['Get Started']
[   2s]   wizard: COMFY_TEST_GPU=0 platform=darwin preferred=['Apple Silicon', 'MPS', 'M4', 'M3', 'M2', 'M1']
[   3s]   clicked [BTN|Get Started]
[   4s]   url: file:///Users/runner/.comfy-test-cache/desktop/ComfyUI.app/Contents/Resources/desktop-ui/index.html#/welcome -> file:///Users/runner/.comfy-test-cache/desktop/ComfyUI.app/Contents/Resources/desktop-ui/index.html#/install
[   5s]   clicked [BTN|Next]
[  11s]   clicked [BTN|Next]
[  13s]   clicked [BTN|Install]
[  14s]   url: file:///Users/runner/.comfy-test-cache/desktop/ComfyUI.app/Contents/Resources/desktop-ui/index.html#/install -> file:///Users/runner/.comfy-test-cache/desktop/ComfyUI.app/Contents/Resources/desktop-ui/index.html#/server-start
[  69s]   /system_stats up after 67s
[  69s]   app: waiting for backend stability (continuous /system_stats up for 30s)
[  69s]   app: /system_stats up; awaiting 30s of stability
[ 100s]   app: backend stable for 30s; proceeding
[ 100s]   capturing canvas load...
[ 109s]   post: waiting for Cloud upsell
[ 109s]   post: clicked Cloud upsell via [button:has-text("Continue Locally"):visible]
[ 112s]   post: waiting for Close Templates
[ 121s]   post: Close Templates not found, skipping
[ 121s]   post: pressed Escape (Close Templates fallback)
[ 123s]   post: waiting for Extensions
[ 124s]   post: clicked Extensions via [button[aria-label="Extensions"]:visible]
[ 126s]   ext: node meta = display='HYWM2' publisher='pznodes' version='0.0.13'
[ 129s]   ext: searching "HYWM2"
[ 133s]   ext: clicking HYWM2 by pznodes tile
[ 136s]   ext: scrolling to + opening version selector
[ 140s]   ext: selected 0.0.13
[ 141s]   ext: clicking right-panel Install
[ 143s]   ext: clicked Install (last of 3 visible)
[ 152s]   ext: waiting for "Apply Changes" toast
[ 187s]   ext: clicked Apply Changes
[ 192s]   app: Apply Changes already triggered in-app restart, skipping pkill
[ 198s]   app: relaunching with CDP
[ 198s]   app: waiting for CDP
[ 198s]   app: CDP up after 1s
[ 198s]   app: reconnecting Playwright
[ 198s]   app: attached to http://127.0.0.1:8000/
[ 211s]   app: server ready after 6s
[ 211s]   app: waiting for main canvas (window.app.graph)
[ 211s]   app: canvas ready after 1s (http://127.0.0.1:8000/)
[ 216s]   app: forcing renderer reload to refresh node-pack manifest
[ 218s]   app: canvas re-ready after reload in 2s
[ 222s]   ext: closing Nodes Manager dialog
[ 222s]   ext: dismissing What's New popup
[ 222s]   ext: closed What's New popup
[ 224s]   ext: dismissing Node Pack Issues modal (if present)
[ 225s]   ext: closed Node Pack Issues modal
[ 227s]   ext: opening Templates sidebar
[ 228s]   ext: clicked Templates
[ 232s]   ext: locating "comfyui-hywm2" section in Templates panel
[ 234s]   ext: clicked comfyui-hywm2 section
[ 236s]   ext: fetching comfy-test.toml from https://raw.githubusercontent.com/PozzettiAndrea/ComfyUI-HYWM2/main/comfy-test.toml
[ 236s]   ext: cpu spec = include ['depth_normal']
[ 236s]   ext: picking first matching comfyui-hywm2 template
[ 236s]   ext: 2 visible cards
[ 238s]   ext: clicked template depth_normal
[ 243s]   ext: installing WS execution listener
[ 243s]   ext: clicking Run
[ 244s]   ext: clicked Run
[ 244s]   ext: waiting for execution_success / execution_error
[ 473s]   ext: WS events=58 elapsed=228s
[ 473s]     ws: {'type': 'progress_state', 'ts': 1779191255562}
[ 473s]     ws: {'type': 'progress', 'ts': 1779191255562}
[ 473s]     ws: {'type': 'progress_state', 'ts': 1779191255599}
[ 473s]     ws: {'type': 'progress_state', 'ts': 1779191255619}
[ 473s]     ws: {'type': 'executing', 'ts': 1779191255620}
[ 473s]     ws: {'type': 'progress_state', 'ts': 1779191433299}
[ 473s]     ws: {'type': 'progress_state', 'ts': 1779191433419}
[ 473s]     ws: {'type': 'executing', 'ts': 1779191433420}
[ 473s]     ws: {'type': 'executed', 'ts': 1779191433727}
[ 473s]     ws: {'type': 'progress_state', 'ts': 1779191433764}
[ 473s]     ws: {'type': 'progress_state', 'ts': 1779191433769}
[ 473s]     ws: {'type': 'executing', 'ts': 1779191433770}
[ 473s]     ws: {'type': 'executed', 'ts': 1779191434026}
[ 473s]     ws: {'type': 'progress_state', 'ts': 1779191434049}
[ 473s]     ws: {'type': 'execution_success', 'ts': 1779191434076}
[ 473s]   ext: execution_success after 228s
[ 479s]   ext: fetching comfy-test.toml from https://raw.githubusercontent.com/PozzettiAndrea/ComfyUI-HYWM2/main/comfy-test.toml
[ 479s]   ext: cpu spec = include ['depth_normal']
[ 479s]   loop: spec=include items=['depth_normal'] -> 1 workflow(s) ['depth_normal']
[ 479s]   loop: matching=1 first_ran='depth_normal' remaining=0 -> []
[ 479s] Captured 493 frames
[ 479s] Wrote /Users/runner/work/comfy-gpu-ci/comfy-gpu-ci/comfy-test-logs/HYWM2-1142/dev/macos-desktop/results.json (1 workflow(s), sha=93d060eaa914)
ffmpeg version 7.1 Copyright (c) 2000-2024 the FFmpeg developers
  built with Apple clang version 13.1.6 (clang-1316.0.21.2.5)
  configuration: --prefix=/Volumes/tempdisk/sw --extra-cflags=-fno-stack-check --arch=arm64 --cc=/usr/bin/clang --enable-gpl --enable-libvmaf --enable-libopenjpeg --enable-libopus --enable-libmp3lame --enable-libx264 --enable-libx265 --enable-libvpx --enable-libwebp --enable-libass --enable-libfreetype --enable-fontconfig --enable-libtheora --enable-libvorbis --enable-libsnappy --enable-libaom --enable-libvidstab --enable-libzimg --enable-libsvtav1 --enable-libharfbuzz --enable-libkvazaar --pkg-config-flags=--static --enable-ffplay --enable-postproc --enable-neon --enable-runtime-cpudetect --disable-indev=qtkit --disable-indev=x11grab_xcb
  libavutil      59. 39.100 / 59. 39.100
  libavcodec     61. 19.100 / 61. 19.100
  libavformat    61.  7.100 / 61.  7.100
  libavdevice    61.  3.100 / 61.  3.100
  libavfilter    10.  4.100 / 10.  4.100
  libswscale      8.  3.100 /  8.  3.100
  libswresample   5.  3.100 /  5.  3.100
  libpostproc    58.  3.100 / 58.  3.100
Input #0, image2, from '/Users/runner/work/comfy-gpu-ci/comfy-gpu-ci/comfy-test-logs/HYWM2-1142/dev/macos-desktop/debug/electron_inspect/frames/frame_%06d.png':
  Duration: 00:01:38.60, start: 0.000000, bitrate: N/A
  Stream #0:0: Video: png, rgb24(pc, gbr/bt709/iec61966-2-1), 1024x653, 5 fps, 5 tbr, 5 tbn
Stream mapping:
  Stream #0:0 -> #0:0 (png (native) -> h264 (libx264))
Press [q] to stop, [?] for help
[libx264 @ 0x158804c00] using cpu capabilities: ARMv8 NEON
[libx264 @ 0x158804c00] profile High, level 3.1, 4:2:0, 8-bit
[libx264 @ 0x158804c00] 264 - core 164 r3190 7ed753b - H.264/MPEG-4 AVC codec - Copyleft 2003-2024 - http://www.videolan.org/x264.html - options: cabac=1 ref=3 deblock=1:0:0 analyse=0x3:0x113 me=hex subme=7 psy=1 psy_rd=1.00:0.00 mixed_ref=1 me_range=16 chroma_me=1 trellis=1 8x8dct=1 cqm=0 deadzone=21,11 fast_pskip=1 chroma_qp_offset=-2 threads=4 lookahead_threads=1 sliced_threads=0 nr=0 decimate=1 interlaced=0 bluray_compat=0 constrained_intra=0 bframes=3 b_pyramid=2 b_adapt=1 b_bias=0 direct=1 weightb=1 open_gop=0 weightp=2 keyint=250 keyint_min=5 scenecut=40 intra_refresh=0 rc_lookahead=40 rc=crf mbtree=1 crf=23.0 qcomp=0.60 qpmin=0 qpmax=69 qpstep=4 ip_ratio=1.40 aq=1:1.00
Output #0, mp4, to '/Users/runner/work/comfy-gpu-ci/comfy-gpu-ci/comfy-test-logs/HYWM2-1142/dev/macos-desktop/debug/electron_inspect/driver.mp4':
  Metadata:
    encoder         : Lavf61.7.100
  Stream #0:0: Video: h264 (avc1 / 0x31637661), yuv420p(tv, unknown/bt709/iec61966-2-1, progressive), 1024x654, q=2-31, 5 fps, 10240 tbn
      Metadata:
        encoder         : Lavc61.19.100 libx264
      Side data:
        cpb: bitrate max/min/avg: 0/0/0 buffer size: 0 vbv_delay: N/A
frame=   20 fps=0.0 q=23.0 size=       0KiB time=00:00:03.60 bitrate=   0.1kbits/s speed=5.53x    
frame=   97 fps= 76 q=23.0 size=     512KiB time=00:00:19.00 bitrate= 220.8kbits/s speed=14.9x    
frame=  188 fps=104 q=23.0 size=     512KiB time=00:00:37.20 bitrate= 112.8kbits/s speed=20.6x    
frame=  256 fps=105 q=23.0 size=     768KiB time=00:00:50.80 bitrate= 123.9kbits/s speed=20.8x    
frame=  327 fps=106 q=23.0 size=    1024KiB time=00:01:05.00 bitrate= 129.1kbits/s speed=21.1x    
frame=  407 fps=110 q=23.0 size=    1024KiB time=00:01:21.00 bitrate= 103.6kbits/s speed=  22x    
[out#0/mp4 @ 0x600001bc4000] video:1183KiB audio:0KiB subtitle:0KiB other streams:0KiB global headers:0KiB muxing overhead: 0.554456%
frame=  493 fps=123 q=-1.0 Lsize=    1190KiB time=00:01:38.20 bitrate=  99.3kbits/s speed=24.5x    
[libx264 @ 0x158804c00] frame I:10    Avg QP: 9.65  size: 45287
[libx264 @ 0x158804c00] frame P:134   Avg QP:15.63  size:  4058
[libx264 @ 0x158804c00] frame B:349   Avg QP:22.77  size:   615
[libx264 @ 0x158804c00] consecutive B-frames:  3.9%  3.7%  4.9% 87.6%
[libx264 @ 0x158804c00] mb I  I16..4: 49.7% 18.0% 32.3%
[libx264 @ 0x158804c00] mb P  I16..4:  3.2%  2.6%  2.6%  P16..4:  1.9%  0.7%  0.5%  0.0%  0.0%    skip:88.6%
[libx264 @ 0x158804c00] mb B  I16..4:  0.1%  0.2%  0.2%  B16..8:  2.4%  0.3%  0.1%  direct: 0.2%  skip:96.5%  L0:46.4% L1:51.5% BI: 2.1%
[libx264 @ 0x158804c00] 8x8 transform intra:26.0% inter:48.9%
[libx264 @ 0x158804c00] coded y,uvDC,uvAC intra: 37.2% 17.1% 13.1% inter: 0.7% 0.4% 0.1%
[libx264 @ 0x158804c00] i16 v,h,dc,p: 65% 32%  2%  2%
[libx264 @ 0x158804c00] i8 v,h,dc,ddl,ddr,vr,hd,vl,hu: 40% 18% 30%  2%  2%  2%  2%  2%  3%
[libx264 @ 0x158804c00] i4 v,h,dc,ddl,ddr,vr,hd,vl,hu: 36% 30% 15%  2%  4%  3%  4%  3%  4%
[libx264 @ 0x158804c00] i8c dc,h,v,p: 80% 12%  6%  2%
[libx264 @ 0x158804c00] Weighted P-Frames: Y:3.0% UV:2.2%
[libx264 @ 0x158804c00] ref P L0: 59.2%  8.1% 14.6% 18.2%  0.0%
[libx264 @ 0x158804c00] ref B L0: 70.7% 21.1%  8.3%
[libx264 @ 0x158804c00] ref B L1: 93.3%  6.7%
[libx264 @ 0x158804c00] kb/s:98.27
[ 484s] Wrote /Users/runner/work/comfy-gpu-ci/comfy-gpu-ci/comfy-test-logs/HYWM2-1142/dev/macos-desktop/debug/electron_inspect/driver.mp4
ffmpeg version 7.1 Copyright (c) 2000-2024 the FFmpeg developers
  built with Apple clang version 13.1.6 (clang-1316.0.21.2.5)
  configuration: --prefix=/Volumes/tempdisk/sw --extra-cflags=-fno-stack-check --arch=arm64 --cc=/usr/bin/clang --enable-gpl --enable-libvmaf --enable-libopenjpeg --enable-libopus --enable-libmp3lame --enable-libx264 --enable-libx265 --enable-libvpx --enable-libwebp --enable-libass --enable-libfreetype --enable-fontconfig --enable-libtheora --enable-libvorbis --enable-libsnappy --enable-libaom --enable-libvidstab --enable-libzimg --enable-libsvtav1 --enable-libharfbuzz --enable-libkvazaar --pkg-config-flags=--static --enable-ffplay --enable-postproc --enable-neon --enable-runtime-cpudetect --disable-indev=qtkit --disable-indev=x11grab_xcb
  libavutil      59. 39.100 / 59. 39.100
  libavcodec     61. 19.100 / 61. 19.100
  libavformat    61.  7.100 / 61.  7.100
  libavdevice    61.  3.100 / 61.  3.100
  libavfilter    10.  4.100 / 10.  4.100
  libswscale      8.  3.100 /  8.  3.100
  libswresample   5.  3.100 /  5.  3.100
  libpostproc    58.  3.100 / 58.  3.100
Input #0, image2, from '/Users/runner/work/comfy-gpu-ci/comfy-gpu-ci/comfy-test-logs/HYWM2-1142/dev/macos-desktop/debug/electron_inspect/frames/frame_%06d.png':
  Duration: 00:00:42.40, start: 0.000000, bitrate: N/A
  Stream #0:0: Video: png, rgb24(pc, gbr/bt709/iec61966-2-1), 1024x653, 5 fps, 5 tbr, 5 tbn
Stream mapping:
  Stream #0:0 -> #0:0 (png (native) -> h264 (libx264))
Press [q] to stop, [?] for help
[libx264 @ 0x12c7051f0] using cpu capabilities: ARMv8 NEON
[libx264 @ 0x12c7051f0] profile High, level 3.1, 4:2:0, 8-bit
[libx264 @ 0x12c7051f0] 264 - core 164 r3190 7ed753b - H.264/MPEG-4 AVC codec - Copyleft 2003-2024 - http://www.videolan.org/x264.html - options: cabac=1 ref=3 deblock=1:0:0 analyse=0x3:0x113 me=hex subme=7 psy=1 psy_rd=1.00:0.00 mixed_ref=1 me_range=16 chroma_me=1 trellis=1 8x8dct=1 cqm=0 deadzone=21,11 fast_pskip=1 chroma_qp_offset=-2 threads=4 lookahead_threads=1 sliced_threads=0 nr=0 decimate=1 interlaced=0 bluray_compat=0 constrained_intra=0 bframes=3 b_pyramid=2 b_adapt=1 b_bias=0 direct=1 weightb=1 open_gop=0 weightp=2 keyint=250 keyint_min=5 scenecut=40 intra_refresh=0 rc_lookahead=40 rc=crf mbtree=1 crf=23.0 qcomp=0.60 qpmin=0 qpmax=69 qpstep=4 ip_ratio=1.40 aq=1:1.00
Output #0, mp4, to '/Users/runner/work/comfy-gpu-ci/comfy-gpu-ci/comfy-test-logs/HYWM2-1142/dev/macos-desktop/videos/depth_normal/driver.mp4':
  Metadata:
    encoder         : Lavf61.7.100
  Stream #0:0: Video: h264 (avc1 / 0x31637661), yuv420p(tv, unknown/bt709/iec61966-2-1, progressive), 1024x654, q=2-31, 5 fps, 10240 tbn
      Metadata:
        encoder         : Lavc61.19.100 libx264
      Side data:
        cpb: bitrate max/min/avg: 0/0/0 buffer size: 0 vbv_delay: N/A
frame=   79 fps=0.0 q=23.0 size=       0KiB time=00:00:15.40 bitrate=   0.0kbits/s speed=24.7x    
frame=  194 fps=158 q=23.0 size=       0KiB time=N/A bitrate=N/A speed=N/A    
[out#0/mp4 @ 0x6000013a0000] video:125KiB audio:0KiB subtitle:0KiB other streams:0KiB global headers:0KiB muxing overhead: 2.652526%
frame=  212 fps=166 q=-1.0 Lsize=     128KiB time=00:00:42.00 bitrate=  25.1kbits/s speed=32.8x    
[libx264 @ 0x12c7051f0] frame I:1     Avg QP:10.54  size: 51481
[libx264 @ 0x12c7051f0] frame P:53    Avg QP:11.04  size:  1184
[libx264 @ 0x12c7051f0] frame B:158   Avg QP:24.00  size:    84
[libx264 @ 0x12c7051f0] consecutive B-frames:  0.5%  0.0%  1.4% 98.1%
[libx264 @ 0x12c7051f0] mb I  I16..4: 41.6% 24.1% 34.3%
[libx264 @ 0x12c7051f0] mb P  I16..4:  0.2%  0.1%  0.4%  P16..4:  0.6%  0.1%  0.1%  0.0%  0.0%    skip:98.5%
[libx264 @ 0x12c7051f0] mb B  I16..4:  0.0%  0.0%  0.0%  B16..8:  1.5%  0.0%  0.0%  direct: 0.0%  skip:98.4%  L0:53.0% L1:46.8% BI: 0.2%
[libx264 @ 0x12c7051f0] 8x8 transform intra:23.7% inter:55.4%
[libx264 @ 0x12c7051f0] coded y,uvDC,uvAC intra: 42.4% 25.8% 22.7% inter: 0.1% 0.1% 0.1%
[libx264 @ 0x12c7051f0] i16 v,h,dc,p: 42% 57%  0%  0%
[libx264 @ 0x12c7051f0] i8 v,h,dc,ddl,ddr,vr,hd,vl,hu: 44% 26% 28%  0%  0%  0%  0%  0%  0%
[libx264 @ 0x12c7051f0] i4 v,h,dc,ddl,ddr,vr,hd,vl,hu: 37% 33% 12%  3%  3%  3%  4%  3%  4%
[libx264 @ 0x12c7051f0] i8c dc,h,v,p: 59% 29% 10%  2%
[libx264 @ 0x12c7051f0] Weighted P-Frames: Y:0.0% UV:0.0%
[libx264 @ 0x12c7051f0] ref P L0: 79.7%  2.0% 13.9%  4.4%
[libx264 @ 0x12c7051f0] ref B L0: 62.1% 37.1%  0.8%
[libx264 @ 0x12c7051f0] ref B L1: 93.2%  6.8%
[libx264 @ 0x12c7051f0] kb/s:24.05
[ 485s]   videos/depth_normal/driver.mp4 placed (frames 282..493)
[ 485s]   screenshots/depth_normal_executed.png placed
[ 485s]   removed /Users/runner/work/comfy-gpu-ci/comfy-gpu-ci/comfy-test-logs/HYWM2-1142/dev/macos-desktop/debug/electron_inspect/frames after successful encode
